<svg id="visual" viewBox="0 0 1400 1500" width="1400" height="1500" xmlns="http://www.w3.org/2000/svg" xmlns:xlink="http://www.w3.org/1999/xlink" version="1.1"><path d="M0 526L127 496L255 436L382 586L509 541L636 211L764 376L891 496L1018 676L1145 301L1273 241L1400 316L1400 0L1273 0L1145 0L1018 0L891 0L764 0L636 0L509 0L382 0L255 0L127 0L0 0Z" fill="#65a2fc"></path><path d="M0 871L127 871L255 826L382 916L509 751L636 751L764 856L891 901L1018 1006L1145 781L1273 826L1400 1036L1400 314L1273 239L1145 299L1018 674L891 494L764 374L636 209L509 539L382 584L255 434L127 494L0 524Z" fill="#a98ce8"></path><path d="M0 1126L127 1051L255 1126L382 1051L509 1081L636 1021L764 1276L891 1171L1018 1171L1145 1156L1273 976L1400 1186L1400 1034L1273 824L1145 779L1018 1004L891 899L764 854L636 749L509 749L382 914L255 824L127 869L0 869Z" fill="#d375c3"></path><path d="M0 1276L127 1186L255 1291L382 1261L509 1246L636 1186L764 1396L891 1321L1018 1366L1145 1396L1273 1216L1400 1366L1400 1184L1273 974L1145 1154L1018 1169L891 1169L764 1274L636 1019L509 1079L382 1049L255 1124L127 1049L0 1124Z" fill="#e66493"></path><path d="M0 1501L127 1501L255 1501L382 1501L509 1501L636 1501L764 1501L891 1501L1018 1501L1145 1501L1273 1501L1400 1501L1400 1364L1273 1214L1145 1394L1018 1364L891 1319L764 1394L636 1184L509 1244L382 1259L255 1289L127 1184L0 1274Z" fill="#e26262"></path></svg>